{
    "asset" : {
        "generator" : "Khronos glTF Blender I/O v1.4.40",
        "version" : "2.0"
    },
    "scene" : 0,
    "scenes" : [
        {
            "name" : "Scene",
            "nodes" : [
                0,
                1
            ]
        }
    ],
    "nodes" : [
        {
            "mesh" : 0,
            "name" : "NOVE",
            "rotation" : [
                -0.40969935059547424,
                0.29381802678108215,
                0.3616243302822113,
                0.7842482328414917
            ],
            "scale" : [
                0.05208542197942734,
                0.052085403352975845,
                0.05208541452884674
            ],
            "translation" : [
                1.4839773178100586,
                18.398622512817383,
                1.3020243644714355
            ]
        },
        {
            "mesh" : 1,
            "name" : "Rock.001",
            "scale" : [
                5.838510513305664,
                5.838510513305664,
                5.838510513305664
            ],
            "translation" : [
                -0.7289028167724609,
                6.017698764801025,
                -6.531639575958252
            ]
        }
    ],
    "materials" : [
        {
            "doubleSided" : true,
            "name" : "BELL",
            "pbrMetallicRoughness" : {
                "baseColorFactor" : [
                    0,
                    0,
                    0,
                    1
                ],
                "metallicFactor" : 0,
                "roughnessFactor" : 0.5772727727890015
            }
        },
        {
            "doubleSided" : true,
            "name" : "Material.001",
            "pbrMetallicRoughness" : {
                "baseColorFactor" : [
                    0.07019153237342834,
                    0.06036878004670143,
                    0.041221827268600464,
                    1
                ],
                "metallicFactor" : 0,
                "roughnessFactor" : 0.7363636493682861
            }
        }
    ],
    "meshes" : [
        {
            "name" : "12683_hand_v1_FINAL.008",
            "primitives" : [
                {
                    "attributes" : {
                        "POSITION" : 0,
                        "NORMAL" : 1,
                        "TEXCOORD_0" : 2
                    },
                    "indices" : 3,
                    "material" : 0
                }
            ]
        },
        {
            "name" : "Cube.002",
            "primitives" : [
                {
                    "attributes" : {
                        "POSITION" : 4,
                        "NORMAL" : 5,
                        "TEXCOORD_0" : 6,
                        "COLOR_0" : 7
                    },
                    "indices" : 8,
                    "material" : 1
                }
            ]
        }
    ],
    "accessors" : [
        {
            "bufferView" : 0,
            "componentType" : 5126,
            "count" : 34450,
            "max" : [
                115.29554748535156,
                238.06536865234375,
                242.9165802001953
            ],
            "min" : [
                -332.3370056152344,
                -232.3739013671875,
                -254.15036010742188
            ],
            "type" : "VEC3"
        },
        {
            "bufferView" : 1,
            "componentType" : 5126,
            "count" : 34450,
            "type" : "VEC3"
        },
        {
            "bufferView" : 2,
            "componentType" : 5126,
            "count" : 34450,
            "type" : "VEC2"
        },
        {
            "bufferView" : 3,
            "componentType" : 5123,
            "count" : 187200,
            "type" : "SCALAR"
        },
        {
            "bufferView" : 4,
            "componentType" : 5126,
            "count" : 128,
            "max" : [
                2.2877368927001953,
                1.8593199253082275,
                2.25396990776062
            ],
            "min" : [
                -1.7877506017684937,
                -1.3120388984680176,
                -1.8673936128616333
            ],
            "type" : "VEC3"
        },
        {
            "bufferView" : 5,
            "componentType" : 5126,
            "count" : 128,
            "type" : "VEC3"
        },
        {
            "bufferView" : 6,
            "componentType" : 5126,
            "count" : 128,
            "type" : "VEC2"
        },
        {
            "bufferView" : 7,
            "componentType" : 5123,
            "count" : 128,
            "normalized" : true,
            "type" : "VEC4"
        },
        {
            "bufferView" : 8,
            "componentType" : 5123,
            "count" : 540,
            "type" : "SCALAR"
        }
    ],
    "bufferViews" : [
        {
            "buffer" : 0,
            "byteLength" : 413400,
            "byteOffset" : 0
        },
        {
            "buffer" : 0,
            "byteLength" : 413400,
            "byteOffset" : 413400
        },
        {
            "buffer" : 0,
            "byteLength" : 275600,
            "byteOffset" : 826800
        },
        {
            "buffer" : 0,
            "byteLength" : 374400,
            "byteOffset" : 1102400
        },
        {
            "buffer" : 0,
            "byteLength" : 1536,
            "byteOffset" : 1476800
        },
        {
            "buffer" : 0,
            "byteLength" : 1536,
            "byteOffset" : 1478336
        },
        {
            "buffer" : 0,
            "byteLength" : 1024,
            "byteOffset" : 1479872
        },
        {
            "buffer" : 0,
            "byteLength" : 1024,
            "byteOffset" : 1480896
        },
        {
            "buffer" : 0,
            "byteLength" : 1080,
            "byteOffset" : 1481920
        }
    ],
    "buffers" : [
        {
            "byteLength" : 1483000,
            "uri" : "data:application/octet-stream;base64,"
        }
    ]
}
