{
    "asset" : {
        "generator" : "Khronos glTF Blender I/O v1.4.40",
        "version" : "2.0"
    },
    "scene" : 0,
    "scenes" : [
        {
            "name" : "Scene",
            "nodes" : [
                0,
                1,
                2
            ]
        }
    ],
    "nodes" : [
        {
            "mesh" : 0,
            "name" : "12683_hand_v1_FINAL",
            "rotation" : [
                -0.23721104860305786,
                0.21197713911533356,
                0.41492974758148193,
                0.8524260520935059
            ],
            "scale" : [
                0.04170939698815346,
                0.041709378361701965,
                0.041709378361701965
            ],
            "translation" : [
                0.1237640380859375,
                8.041333198547363,
                -10.885297775268555
            ]
        },
        {
            "mesh" : 1,
            "name" : "SPADA UOMO",
            "rotation" : [
                0.20784461498260498,
                0.20777572691440582,
                -0.6824213266372681,
                0.6692765951156616
            ],
            "scale" : [
                0.3615027368068695,
                0.3615027368068695,
                0.36150267720222473
            ],
            "translation" : [
                -7.950130462646484,
                19.419824600219727,
                -0.13831356167793274
            ]
        },
        {
            "mesh" : 2,
            "name" : "12683_hand_v1_FINAL.002",
            "rotation" : [
                0.41492974758148193,
                0.8524258732795715,
                0.23721101880073547,
                -0.21197721362113953
            ],
            "scale" : [
                0.04170939698815346,
                0.04170937463641167,
                0.041709378361701965
            ],
            "translation" : [
                0.2682952880859375,
                15.929583549499512,
                7.799102306365967
            ]
        }
    ],
    "materials" : [
        {
            "doubleSided" : true,
            "name" : "COLORE",
            "pbrMetallicRoughness" : {
                "baseColorFactor" : [
                    0,
                    0,
                    0,
                    1
                ],
                "metallicFactor" : 0,
                "roughnessFactor" : 0.5772727727890015
            }
        }
    ],
    "meshes" : [
        {
            "name" : "12683_hand_v1_FINAL",
            "primitives" : [
                {
                    "attributes" : {
                        "POSITION" : 0,
                        "NORMAL" : 1,
                        "TEXCOORD_0" : 2
                    },
                    "indices" : 3,
                    "material" : 0
                }
            ]
        },
        {
            "name" : "Cube.002",
            "primitives" : [
                {
                    "attributes" : {
                        "POSITION" : 4,
                        "NORMAL" : 5,
                        "TEXCOORD_0" : 6
                    },
                    "indices" : 7,
                    "material" : 0
                }
            ]
        },
        {
            "name" : "12683_hand_v1_FINAL.002",
            "primitives" : [
                {
                    "attributes" : {
                        "POSITION" : 8,
                        "NORMAL" : 9,
                        "TEXCOORD_0" : 10
                    },
                    "indices" : 11,
                    "material" : 0
                }
            ]
        }
    ],
    "accessors" : [
        {
            "bufferView" : 0,
            "componentType" : 5126,
            "count" : 34450,
            "max" : [
                148.88284301757812,
                176.34434509277344,
                388.7290344238281
            ],
            "min" : [
                -194.44790649414062,
                -207.4598846435547,
                -320.0154724121094
            ],
            "type" : "VEC3"
        },
        {
            "bufferView" : 1,
            "componentType" : 5126,
            "count" : 34450,
            "type" : "VEC3"
        },
        {
            "bufferView" : 2,
            "componentType" : 5126,
            "count" : 34450,
            "type" : "VEC2"
        },
        {
            "bufferView" : 3,
            "componentType" : 5123,
            "count" : 187200,
            "type" : "SCALAR"
        },
        {
            "bufferView" : 4,
            "componentType" : 5126,
            "count" : 474,
            "max" : [
                3.656010866165161,
                44.71431350708008,
                0.9657608270645142
            ],
            "min" : [
                -3.767449378967285,
                -2.25231671333313,
                -0.9657610058784485
            ],
            "type" : "VEC3"
        },
        {
            "bufferView" : 5,
            "componentType" : 5126,
            "count" : 474,
            "type" : "VEC3"
        },
        {
            "bufferView" : 6,
            "componentType" : 5126,
            "count" : 474,
            "type" : "VEC2"
        },
        {
            "bufferView" : 7,
            "componentType" : 5123,
            "count" : 720,
            "type" : "SCALAR"
        },
        {
            "bufferView" : 8,
            "componentType" : 5126,
            "count" : 34450,
            "max" : [
                216.6105194091797,
                202.22593688964844,
                275.22589111328125
            ],
            "min" : [
                -310.35894775390625,
                -309.35308837890625,
                -291.5748291015625
            ],
            "type" : "VEC3"
        },
        {
            "bufferView" : 9,
            "componentType" : 5126,
            "count" : 34450,
            "type" : "VEC3"
        },
        {
            "bufferView" : 10,
            "componentType" : 5126,
            "count" : 34450,
            "type" : "VEC2"
        },
        {
            "bufferView" : 11,
            "componentType" : 5123,
            "count" : 187200,
            "type" : "SCALAR"
        }
    ],
    "bufferViews" : [
        {
            "buffer" : 0,
            "byteLength" : 413400,
            "byteOffset" : 0
        },
        {
            "buffer" : 0,
            "byteLength" : 413400,
            "byteOffset" : 413400
        },
        {
            "buffer" : 0,
            "byteLength" : 275600,
            "byteOffset" : 826800
        },
        {
            "buffer" : 0,
            "byteLength" : 374400,
            "byteOffset" : 1102400
        },
        {
            "buffer" : 0,
            "byteLength" : 5688,
            "byteOffset" : 1476800
        },
        {
            "buffer" : 0,
            "byteLength" : 5688,
            "byteOffset" : 1482488
        },
        {
            "buffer" : 0,
            "byteLength" : 3792,
            "byteOffset" : 1488176
        },
        {
            "buffer" : 0,
            "byteLength" : 1440,
            "byteOffset" : 1491968
        },
        {
            "buffer" : 0,
            "byteLength" : 413400,
            "byteOffset" : 1493408
        },
        {
            "buffer" : 0,
            "byteLength" : 413400,
            "byteOffset" : 1906808
        },
        {
            "buffer" : 0,
            "byteLength" : 275600,
            "byteOffset" : 2320208
        },
        {
            "buffer" : 0,
            "byteLength" : 374400,
            "byteOffset" : 2595808
        }
    ],
    "buffers" : [
        {
            "byteLength" : 2970208,
            "uri" : "data:application/octet-stream;base64,"
        }
    ]
}
